<svg width="317" height="105" viewBox="0 0 317 105" fill="none" xmlns="http://www.w3.org/2000/svg">
<path d="M34.8 58.4844C34.8 65.8844 28.8 71.8844 21.4 71.8844C14 71.8844 8 65.8844 8 58.4844C8 51.0844 14 45.0844 21.4 45.0844C28.8 45.0844 34.8 51.1844 34.8 58.4844Z" fill="#FC5421"/>
<path d="M130 53.1844C129.5 50.3844 127.1 46.3844 120.9 46.3844C116.2 46.3844 113 49.3844 113 52.7844C113 55.5844 114.8 57.7844 118.4 58.4844L125 59.7844C133.1 61.3844 137.5 66.2844 137.5 72.5844C137.5 79.4844 131.7 86.0844 121.1 86.0844C109.4 86.0844 104 78.7844 103.2 72.3844L110.5 70.3844C111 74.9844 114.4 79.2844 121.1 79.2844C126.6 79.2844 129.5 76.5844 129.5 73.1844C129.5 70.2844 127.3 67.9844 123.3 67.1844L116.8 65.8844C109.8 64.4844 105.1 60.0844 105.1 53.3844C105.1 45.8844 112.2 39.7844 120.8 39.7844C131.7 39.7844 135.9 46.1844 137 51.0844L130 53.1844Z" fill="#35363B"/>
<path d="M165 69.7844C165 63.4844 160.8 60.1844 156.1 60.1844C151.5 60.1844 147.2 63.4844 147.2 69.7844C147.2 76.0844 151.4 79.4844 156.1 79.4844C160.9 79.4844 165 76.0844 165 69.7844ZM172.7 69.7844C172.7 79.1844 165.7 85.9844 156.2 85.9844C146.8 85.9844 139.8 79.1844 139.8 69.7844C139.8 60.4844 146.8 53.5844 156.2 53.5844C165.7 53.5844 172.7 60.3844 172.7 69.7844Z" fill="#35363B"/>
<path d="M184.2 84.9844H176.6V54.4844H184V58.5844C186.1 55.0844 189.9 53.6844 193.4 53.6844C201.2 53.6844 204.9 59.0844 204.9 65.7844V85.0844H197.3V67.0844C197.3 63.2844 195.5 60.2844 190.8 60.2844C186.5 60.2844 184.2 63.4844 184.2 67.4844V84.9844Z" fill="#35363B"/>
<path d="M224.8 79.5844C229.8 79.5844 233.2 75.4844 233.2 69.5844C233.2 63.6844 229.8 59.9844 224.8 59.9844C219.7 59.9844 216.2 63.7844 216.2 69.5844C216.2 75.4844 219.5 79.5844 224.8 79.5844ZM223.9 85.8844C214.6 85.8844 208.6 78.7844 208.6 69.6844C208.6 60.8844 214.7 53.6844 223.8 53.6844C229.4 53.6844 232.3 56.4844 233.1 58.5844V54.5844H240.5V79.4844C240.5 81.9844 240.8 84.4844 240.8 85.0844H233.6C233.5 84.3844 233.3 82.7844 233.3 80.6844C231.8 83.5844 228.5 85.8844 223.9 85.8844Z" fill="#35363B"/>
<path d="M250.9 74.9844C251.2 77.7844 253.3 80.1844 257.3 80.1844C260.4 80.1844 262.1 78.5844 262.1 76.6844C262.1 75.0844 260.9 73.7844 258.4 73.2844L253.7 72.2844C248.1 71.0844 245.2 67.5844 245.2 63.3844C245.2 58.0844 250.3 53.5844 256.9 53.5844C265.8 53.5844 268.6 59.0844 269.1 62.0844L262.7 63.8844C262.4 62.0844 261.1 59.2844 256.8 59.2844C254.1 59.2844 252.2 60.8844 252.2 62.7844C252.2 64.3844 253.4 65.5844 255.4 65.9844L260.2 66.8844C266.2 68.1844 269.3 71.6844 269.3 76.1844C269.3 80.7844 265.4 85.9844 257.3 85.9844C248.1 85.9844 244.6 80.1844 244.2 76.7844L250.9 74.9844Z" fill="#35363B"/>
<path d="M273.5 54.4844H281V84.9844H273.5V54.4844ZM277.2 39.0844C279.9 39.0844 282.2 41.1844 282.2 43.8844C282.2 46.4844 280 48.5844 277.2 48.5844C274.5 48.5844 272.3 46.4844 272.3 43.8844C272.3 41.1844 274.5 39.0844 277.2 39.0844Z" fill="#35363B"/>
<path d="M300.9 79.3844C305.9 79.3844 309.3 75.4844 309.3 69.5844C309.3 63.7844 305.9 60.0844 301 60.0844C296 60.0844 292.4 63.7844 292.4 69.5844C292.3 75.4844 295.7 79.3844 300.9 79.3844ZM316.6 79.4844C316.6 82.2844 316.9 84.5844 316.9 85.0844H309.7C309.6 84.3844 309.4 82.3844 309.4 81.1844C307.9 83.7844 304.6 85.8844 300.1 85.8844C291 85.8844 284.9 78.9844 284.9 69.7844C284.9 60.9844 291.1 53.7844 300 53.7844C305.5 53.7844 308.3 56.1844 309.3 58.1844V39.7844H316.7V79.4844H316.6Z" fill="#35363B"/>
<path d="M19.1 104.084C12.4 104.084 6 102.284 0 98.7844L9.6 82.5844C15.8 86.2844 22.7 86.0844 30.9 82.1844C38.8 78.3844 44.9 72.1844 47.3 69.1844C52.7 62.2844 56 57.1844 65.1 43.5844C68.3 38.7844 72.2 32.8844 77.1 25.5844C90.6 5.38442 107.3 0.58442 119 0.0844199C131.4 -0.41558 140.6 3.6844 141.6 4.1844L133.6 21.2844H133.7C133.6 21.2844 127.4 18.4844 119.2 18.9844C108.8 19.6844 100 25.3844 92.8 36.0844C87.9 43.3844 84 49.2844 80.9 54.0844C71.6 68.1844 68.1 73.3844 62.3 80.8844C57.9 86.4844 49.6 94.2844 39.3 99.2844C32.3 102.484 25.6 104.084 19.1 104.084Z" fill="#FC5421"/>
</svg>
