<svg width="142" height="105" viewBox="0 0 142 105" fill="none" xmlns="http://www.w3.org/2000/svg">
<path d="M34.8 58.4421C34.8 65.8421 28.8 71.8422 21.4 71.8422C14 71.8422 8 65.8421 8 58.4421C8 51.0421 14 45.0422 21.4 45.0422C28.8 45.0422 34.8 51.1421 34.8 58.4421Z" fill="#FC5421"/>
<path d="M19.1 104.042C12.4 104.042 6 102.242 0 98.7422L9.6 82.5422C15.8 86.2422 22.7 86.0422 30.9 82.1422C38.8 78.3422 44.9 72.1422 47.3 69.1422C52.7 62.2422 56 57.1422 65.1 43.5422C68.3 38.7422 72.2 32.8422 77.1 25.5422C90.6 5.34218 107.3 0.542184 119 0.0421835C131.4 -0.457816 140.6 3.64216 141.6 4.14216L133.6 21.2422H133.7C133.6 21.2422 127.4 18.4421 119.2 18.9421C108.8 19.6421 100 25.3422 92.8 36.0422C87.9 43.3422 84 49.2422 80.9 54.0422C71.6 68.1422 68.1 73.3422 62.3 80.8422C57.9 86.4422 49.6 94.2422 39.3 99.2422C32.3 102.442 25.6 104.042 19.1 104.042Z" fill="#FC5421"/>
</svg>
