<svg width="317" height="105" viewBox="0 0 317 105" fill="none" xmlns="http://www.w3.org/2000/svg">
<path d="M34.8 58.4421C34.8 65.8421 28.8 71.8422 21.4 71.8422C14 71.8422 8 65.8421 8 58.4421C8 51.0421 14 45.0422 21.4 45.0422C28.8 45.0422 34.8 51.1421 34.8 58.4421Z" fill="#FC5421"/>
<path d="M130 53.1422C129.5 50.3422 127.1 46.3422 120.9 46.3422C116.2 46.3422 113 49.3422 113 52.7422C113 55.5422 114.8 57.7421 118.4 58.4421L125 59.7422C133.1 61.3422 137.5 66.2422 137.5 72.5422C137.5 79.4422 131.7 86.0422 121.1 86.0422C109.4 86.0422 104 78.7422 103.2 72.3422L110.5 70.3422C111 74.9422 114.4 79.2422 121.1 79.2422C126.6 79.2422 129.5 76.5422 129.5 73.1422C129.5 70.2422 127.3 67.9422 123.3 67.1422L116.8 65.8422C109.8 64.4422 105.1 60.0422 105.1 53.3422C105.1 45.8422 112.2 39.7422 120.8 39.7422C131.7 39.7422 135.9 46.1422 137 51.0422L130 53.1422Z" fill="white"/>
<path d="M165 69.7422C165 63.4422 160.8 60.1422 156.1 60.1422C151.5 60.1422 147.2 63.4422 147.2 69.7422C147.2 76.0422 151.4 79.4421 156.1 79.4421C160.9 79.4421 165 76.0422 165 69.7422ZM172.7 69.7422C172.7 79.1422 165.7 85.9421 156.2 85.9421C146.8 85.9421 139.8 79.1422 139.8 69.7422C139.8 60.4422 146.8 53.5422 156.2 53.5422C165.7 53.5422 172.7 60.3422 172.7 69.7422Z" fill="white"/>
<path d="M184.2 84.9421H176.6V54.4421H184V58.5422C186.1 55.0422 189.9 53.6422 193.4 53.6422C201.2 53.6422 204.9 59.0422 204.9 65.7422V85.0422H197.3V67.0422C197.3 63.2422 195.5 60.2422 190.8 60.2422C186.5 60.2422 184.2 63.4421 184.2 67.4421V84.9421Z" fill="white"/>
<path d="M224.8 79.5422C229.8 79.5422 233.2 75.4422 233.2 69.5422C233.2 63.6422 229.8 59.9421 224.8 59.9421C219.7 59.9421 216.2 63.7422 216.2 69.5422C216.2 75.4422 219.5 79.5422 224.8 79.5422ZM223.9 85.8422C214.6 85.8422 208.6 78.7422 208.6 69.6422C208.6 60.8422 214.7 53.6422 223.8 53.6422C229.4 53.6422 232.3 56.4422 233.1 58.5422V54.5422H240.5V79.4421C240.5 81.9421 240.8 84.4422 240.8 85.0422H233.6C233.5 84.3422 233.3 82.7422 233.3 80.6422C231.8 83.5422 228.5 85.8422 223.9 85.8422Z" fill="white"/>
<path d="M250.9 74.9421C251.2 77.7421 253.3 80.1422 257.3 80.1422C260.4 80.1422 262.1 78.5422 262.1 76.6422C262.1 75.0422 260.9 73.7422 258.4 73.2422L253.7 72.2422C248.1 71.0422 245.2 67.5422 245.2 63.3422C245.2 58.0422 250.3 53.5422 256.9 53.5422C265.8 53.5422 268.6 59.0422 269.1 62.0422L262.7 63.8422C262.4 62.0422 261.1 59.2422 256.8 59.2422C254.1 59.2422 252.2 60.8422 252.2 62.7422C252.2 64.3422 253.4 65.5421 255.4 65.9421L260.2 66.8422C266.2 68.1422 269.3 71.6422 269.3 76.1422C269.3 80.7422 265.4 85.9421 257.3 85.9421C248.1 85.9421 244.6 80.1422 244.2 76.7422L250.9 74.9421Z" fill="white"/>
<path d="M273.5 54.4421H281V84.9421H273.5V54.4421ZM277.2 39.0422C279.9 39.0422 282.2 41.1422 282.2 43.8422C282.2 46.4422 280 48.5422 277.2 48.5422C274.5 48.5422 272.3 46.4422 272.3 43.8422C272.3 41.1422 274.5 39.0422 277.2 39.0422Z" fill="white"/>
<path d="M300.9 79.3422C305.9 79.3422 309.3 75.4422 309.3 69.5422C309.3 63.7422 305.9 60.0422 301 60.0422C296 60.0422 292.4 63.7422 292.4 69.5422C292.3 75.4422 295.7 79.3422 300.9 79.3422ZM316.6 79.4421C316.6 82.2421 316.9 84.5422 316.9 85.0422H309.7C309.6 84.3422 309.4 82.3422 309.4 81.1422C307.9 83.7422 304.6 85.8422 300.1 85.8422C291 85.8422 284.9 78.9422 284.9 69.7422C284.9 60.9422 291.1 53.7422 300 53.7422C305.5 53.7422 308.3 56.1422 309.3 58.1422V39.7422H316.7V79.4421H316.6Z" fill="white"/>
<path d="M19.1 104.042C12.4 104.042 6 102.242 0 98.7422L9.6 82.5422C15.8 86.2422 22.7 86.0422 30.9 82.1422C38.8 78.3422 44.9 72.1422 47.3 69.1422C52.7 62.2422 56 57.1422 65.1 43.5422C68.3 38.7422 72.2 32.8422 77.1 25.5422C90.6 5.34218 107.3 0.542184 119 0.0421835C131.4 -0.457816 140.6 3.64216 141.6 4.14216L133.6 21.2422H133.7C133.6 21.2422 127.4 18.4421 119.2 18.9421C108.8 19.6421 100 25.3422 92.8 36.0422C87.9 43.3422 84 49.2422 80.9 54.0422C71.6 68.1422 68.1 73.3422 62.3 80.8422C57.9 86.4422 49.6 94.2422 39.3 99.2422C32.3 102.442 25.6 104.042 19.1 104.042Z" fill="#FC5421"/>
</svg>
